<mxfile host="app.diagrams.net" agent="Mozilla/5.0 (Windows NT 10.0; Win64; x64) AppleWebKit/537.36 (KHTML, like Gecko) Chrome/118.0.0.0 Safari/537.36" version="28.0.4">
  <diagram name="第 1 页" id="gNEIrA9oEmpSBPZUfqRe">
    <mxGraphModel dx="1079" dy="471" grid="1" gridSize="10" guides="1" tooltips="1" connect="1" arrows="1" fold="1" page="1" pageScale="1" pageWidth="827" pageHeight="1169" math="0" shadow="0">
      <root>
        <mxCell id="0" />
        <mxCell id="1" parent="0" />
        <mxCell id="BmQ3h2cgDi1CnOG-n2bF-2" style="edgeStyle=orthogonalEdgeStyle;rounded=0;orthogonalLoop=1;jettySize=auto;html=1;exitX=0.5;exitY=1;exitDx=0;exitDy=0;" edge="1" parent="1">
          <mxGeometry relative="1" as="geometry">
            <mxPoint x="255.75" y="60" as="sourcePoint" />
            <mxPoint x="255.75" y="60" as="targetPoint" />
          </mxGeometry>
        </mxCell>
        <mxCell id="BmQ3h2cgDi1CnOG-n2bF-31" value="&lt;b&gt;初始状态：空树&lt;/b&gt;" style="text;strokeColor=none;align=center;fillColor=none;html=1;verticalAlign=middle;whiteSpace=wrap;rounded=0;" vertex="1" parent="1">
          <mxGeometry x="39.99999999999999" y="40" width="90" height="20" as="geometry" />
        </mxCell>
        <mxCell id="BmQ3h2cgDi1CnOG-n2bF-32" value="&lt;b&gt;插入节点A&lt;/b&gt;" style="text;strokeColor=none;align=center;fillColor=none;html=1;verticalAlign=middle;whiteSpace=wrap;rounded=0;" vertex="1" parent="1">
          <mxGeometry x="80" y="80" width="60" height="20" as="geometry" />
        </mxCell>
        <mxCell id="BmQ3h2cgDi1CnOG-n2bF-33" value="A" style="ellipse;whiteSpace=wrap;html=1;aspect=fixed;fillColor=#E6FFCC;" vertex="1" parent="1">
          <mxGeometry x="77.59" y="120" width="64.81818181818181" height="64.81818181818181" as="geometry" />
        </mxCell>
        <mxCell id="BmQ3h2cgDi1CnOG-n2bF-34" value="&lt;b&gt;插入节点B&lt;/b&gt;" style="text;strokeColor=none;align=center;fillColor=none;html=1;verticalAlign=middle;whiteSpace=wrap;rounded=0;" vertex="1" parent="1">
          <mxGeometry x="352.99999999999994" y="80" width="60" height="20" as="geometry" />
        </mxCell>
        <mxCell id="BmQ3h2cgDi1CnOG-n2bF-54" value="" style="group" vertex="1" connectable="0" parent="1">
          <mxGeometry x="541.5928571428573" y="120" width="220.81818181818159" height="214.81818181818176" as="geometry" />
        </mxCell>
        <mxCell id="BmQ3h2cgDi1CnOG-n2bF-41" value="" style="endArrow=none;html=1;rounded=0;entryX=0.72;entryY=0.953;entryDx=0;entryDy=0;entryPerimeter=0;exitX=0.355;exitY=0.021;exitDx=0;exitDy=0;exitPerimeter=0;" edge="1" parent="BmQ3h2cgDi1CnOG-n2bF-54" source="BmQ3h2cgDi1CnOG-n2bF-48" target="BmQ3h2cgDi1CnOG-n2bF-46">
          <mxGeometry width="50" height="50" relative="1" as="geometry">
            <mxPoint x="195.99714285714282" y="148" as="sourcePoint" />
            <mxPoint x="125.99714285714282" y="55" as="targetPoint" />
          </mxGeometry>
        </mxCell>
        <mxCell id="BmQ3h2cgDi1CnOG-n2bF-46" value="A" style="ellipse;whiteSpace=wrap;html=1;aspect=fixed;fillColor=#E6FFCC;" vertex="1" parent="BmQ3h2cgDi1CnOG-n2bF-54">
          <mxGeometry x="75.99999999999994" width="64.81818181818181" height="64.81818181818181" as="geometry" />
        </mxCell>
        <mxCell id="BmQ3h2cgDi1CnOG-n2bF-47" value="B" style="ellipse;whiteSpace=wrap;html=1;aspect=fixed;fillColor=#CCFF99;" vertex="1" parent="BmQ3h2cgDi1CnOG-n2bF-54">
          <mxGeometry y="150" width="64.81818181818181" height="64.81818181818181" as="geometry" />
        </mxCell>
        <mxCell id="BmQ3h2cgDi1CnOG-n2bF-48" value="C" style="ellipse;whiteSpace=wrap;html=1;aspect=fixed;fillColor=#CCFF99;" vertex="1" parent="BmQ3h2cgDi1CnOG-n2bF-54">
          <mxGeometry x="155.99999999999983" y="150" width="64.81818181818181" height="64.81818181818181" as="geometry" />
        </mxCell>
        <mxCell id="BmQ3h2cgDi1CnOG-n2bF-53" value="" style="endArrow=none;html=1;rounded=0;entryX=0.244;entryY=0.934;entryDx=0;entryDy=0;entryPerimeter=0;exitX=0.657;exitY=0.025;exitDx=0;exitDy=0;exitPerimeter=0;" edge="1" parent="BmQ3h2cgDi1CnOG-n2bF-54" source="BmQ3h2cgDi1CnOG-n2bF-47" target="BmQ3h2cgDi1CnOG-n2bF-46">
          <mxGeometry width="50" height="50" relative="1" as="geometry">
            <mxPoint x="30.99714285714282" y="150" as="sourcePoint" />
            <mxPoint x="75.99714285714282" y="60" as="targetPoint" />
          </mxGeometry>
        </mxCell>
        <mxCell id="BmQ3h2cgDi1CnOG-n2bF-61" value="" style="group" vertex="1" connectable="0" parent="1">
          <mxGeometry x="312.59" y="120" width="140.81818181818176" height="214.8181818181818" as="geometry" />
        </mxCell>
        <mxCell id="BmQ3h2cgDi1CnOG-n2bF-57" value="A" style="ellipse;whiteSpace=wrap;html=1;aspect=fixed;fillColor=#E6FFCC;" vertex="1" parent="BmQ3h2cgDi1CnOG-n2bF-61">
          <mxGeometry x="75.99999999999994" width="64.81818181818181" height="64.81818181818181" as="geometry" />
        </mxCell>
        <mxCell id="BmQ3h2cgDi1CnOG-n2bF-58" value="B" style="ellipse;whiteSpace=wrap;html=1;aspect=fixed;fillColor=#CCFF99;" vertex="1" parent="BmQ3h2cgDi1CnOG-n2bF-61">
          <mxGeometry y="150" width="64.81818181818181" height="64.81818181818181" as="geometry" />
        </mxCell>
        <mxCell id="BmQ3h2cgDi1CnOG-n2bF-60" value="" style="endArrow=none;html=1;rounded=0;entryX=0.244;entryY=0.934;entryDx=0;entryDy=0;entryPerimeter=0;exitX=0.657;exitY=0.025;exitDx=0;exitDy=0;exitPerimeter=0;" edge="1" parent="BmQ3h2cgDi1CnOG-n2bF-61" source="BmQ3h2cgDi1CnOG-n2bF-58" target="BmQ3h2cgDi1CnOG-n2bF-57">
          <mxGeometry width="50" height="50" relative="1" as="geometry">
            <mxPoint x="30.99714285714282" y="150" as="sourcePoint" />
            <mxPoint x="75.99714285714282" y="60" as="targetPoint" />
          </mxGeometry>
        </mxCell>
        <mxCell id="BmQ3h2cgDi1CnOG-n2bF-62" value="&lt;b&gt;插入节点C&lt;/b&gt;" style="text;strokeColor=none;align=center;fillColor=none;html=1;verticalAlign=middle;whiteSpace=wrap;rounded=0;" vertex="1" parent="1">
          <mxGeometry x="617" y="80" width="70" height="20" as="geometry" />
        </mxCell>
        <mxCell id="BmQ3h2cgDi1CnOG-n2bF-63" value="&lt;b&gt;插入节点D&lt;/b&gt;" style="text;strokeColor=none;align=center;fillColor=none;html=1;verticalAlign=middle;whiteSpace=wrap;rounded=0;" vertex="1" parent="1">
          <mxGeometry x="165.18" y="400" width="60" height="20" as="geometry" />
        </mxCell>
        <mxCell id="BmQ3h2cgDi1CnOG-n2bF-72" value="" style="group" vertex="1" connectable="0" parent="1">
          <mxGeometry x="77.77000000000001" y="440" width="234.81818181818164" height="214.81818181818176" as="geometry" />
        </mxCell>
        <mxCell id="BmQ3h2cgDi1CnOG-n2bF-70" value="C" style="ellipse;whiteSpace=wrap;html=1;aspect=fixed;fillColor=#CCFF99;" vertex="1" parent="BmQ3h2cgDi1CnOG-n2bF-72">
          <mxGeometry x="86" y="150" width="64.81818181818181" height="64.81818181818181" as="geometry" />
        </mxCell>
        <mxCell id="BmQ3h2cgDi1CnOG-n2bF-65" value="" style="endArrow=none;html=1;rounded=0;entryX=0.72;entryY=0.953;entryDx=0;entryDy=0;entryPerimeter=0;exitX=0.355;exitY=0.021;exitDx=0;exitDy=0;exitPerimeter=0;" edge="1" parent="BmQ3h2cgDi1CnOG-n2bF-72" source="BmQ3h2cgDi1CnOG-n2bF-68" target="BmQ3h2cgDi1CnOG-n2bF-66">
          <mxGeometry width="50" height="50" relative="1" as="geometry">
            <mxPoint x="205.99714285714282" y="148" as="sourcePoint" />
            <mxPoint x="135.99714285714282" y="55" as="targetPoint" />
          </mxGeometry>
        </mxCell>
        <mxCell id="BmQ3h2cgDi1CnOG-n2bF-66" value="A" style="ellipse;whiteSpace=wrap;html=1;aspect=fixed;fillColor=#E6FFCC;" vertex="1" parent="BmQ3h2cgDi1CnOG-n2bF-72">
          <mxGeometry x="85.99999999999994" width="64.81818181818181" height="64.81818181818181" as="geometry" />
        </mxCell>
        <mxCell id="BmQ3h2cgDi1CnOG-n2bF-67" value="B" style="ellipse;whiteSpace=wrap;html=1;aspect=fixed;fillColor=#CCFF99;" vertex="1" parent="BmQ3h2cgDi1CnOG-n2bF-72">
          <mxGeometry y="150" width="64.81818181818181" height="64.81818181818181" as="geometry" />
        </mxCell>
        <mxCell id="BmQ3h2cgDi1CnOG-n2bF-68" value="D" style="ellipse;whiteSpace=wrap;html=1;aspect=fixed;fillColor=#CCFF99;" vertex="1" parent="BmQ3h2cgDi1CnOG-n2bF-72">
          <mxGeometry x="169.99999999999983" y="150" width="64.81818181818181" height="64.81818181818181" as="geometry" />
        </mxCell>
        <mxCell id="BmQ3h2cgDi1CnOG-n2bF-69" value="" style="endArrow=none;html=1;rounded=0;entryX=0.256;entryY=0.943;entryDx=0;entryDy=0;entryPerimeter=0;exitX=0.657;exitY=0.025;exitDx=0;exitDy=0;exitPerimeter=0;" edge="1" parent="BmQ3h2cgDi1CnOG-n2bF-72" source="BmQ3h2cgDi1CnOG-n2bF-67" target="BmQ3h2cgDi1CnOG-n2bF-66">
          <mxGeometry width="50" height="50" relative="1" as="geometry">
            <mxPoint x="40.99714285714282" y="150" as="sourcePoint" />
            <mxPoint x="85.99714285714282" y="60" as="targetPoint" />
          </mxGeometry>
        </mxCell>
        <mxCell id="BmQ3h2cgDi1CnOG-n2bF-71" value="" style="endArrow=none;html=1;rounded=0;entryX=0.5;entryY=1;entryDx=0;entryDy=0;exitX=0.5;exitY=0;exitDx=0;exitDy=0;" edge="1" parent="BmQ3h2cgDi1CnOG-n2bF-72" source="BmQ3h2cgDi1CnOG-n2bF-70" target="BmQ3h2cgDi1CnOG-n2bF-66">
          <mxGeometry width="50" height="50" relative="1" as="geometry">
            <mxPoint x="86" y="181" as="sourcePoint" />
            <mxPoint x="145" y="90" as="targetPoint" />
          </mxGeometry>
        </mxCell>
        <mxCell id="BmQ3h2cgDi1CnOG-n2bF-73" value="&lt;b&gt;插入节点E&lt;/b&gt;" style="text;strokeColor=none;align=center;fillColor=none;html=1;verticalAlign=middle;whiteSpace=wrap;rounded=0;" vertex="1" parent="1">
          <mxGeometry x="600" y="400" width="60" height="20" as="geometry" />
        </mxCell>
        <mxCell id="BmQ3h2cgDi1CnOG-n2bF-86" value="" style="group" vertex="1" connectable="0" parent="1">
          <mxGeometry x="420" y="440.00000000000006" width="324.81818181818153" height="364.81818181818176" as="geometry" />
        </mxCell>
        <mxCell id="BmQ3h2cgDi1CnOG-n2bF-84" value="E" style="ellipse;whiteSpace=wrap;html=1;aspect=fixed;fillColor=#99FF33;" vertex="1" parent="BmQ3h2cgDi1CnOG-n2bF-86">
          <mxGeometry y="300" width="64.81818181818181" height="64.81818181818181" as="geometry" />
        </mxCell>
        <mxCell id="BmQ3h2cgDi1CnOG-n2bF-85" value="" style="endArrow=none;html=1;rounded=0;entryX=0.154;entryY=0.859;entryDx=0;entryDy=0;entryPerimeter=0;exitX=0.607;exitY=0.016;exitDx=0;exitDy=0;exitPerimeter=0;" edge="1" parent="BmQ3h2cgDi1CnOG-n2bF-86" source="BmQ3h2cgDi1CnOG-n2bF-84" target="BmQ3h2cgDi1CnOG-n2bF-79">
          <mxGeometry width="50" height="50" relative="1" as="geometry">
            <mxPoint x="40" y="300" as="sourcePoint" />
            <mxPoint x="100" y="209" as="targetPoint" />
          </mxGeometry>
        </mxCell>
        <mxCell id="BmQ3h2cgDi1CnOG-n2bF-76" value="C" style="ellipse;whiteSpace=wrap;html=1;aspect=fixed;fillColor=#CCFF99;" vertex="1" parent="BmQ3h2cgDi1CnOG-n2bF-86">
          <mxGeometry x="176" y="150" width="64.81818181818181" height="64.81818181818181" as="geometry" />
        </mxCell>
        <mxCell id="BmQ3h2cgDi1CnOG-n2bF-77" value="" style="endArrow=none;html=1;rounded=0;entryX=0.72;entryY=0.953;entryDx=0;entryDy=0;entryPerimeter=0;exitX=0.355;exitY=0.021;exitDx=0;exitDy=0;exitPerimeter=0;" edge="1" parent="BmQ3h2cgDi1CnOG-n2bF-86" source="BmQ3h2cgDi1CnOG-n2bF-80" target="BmQ3h2cgDi1CnOG-n2bF-78">
          <mxGeometry width="50" height="50" relative="1" as="geometry">
            <mxPoint x="295.99714285714276" y="148" as="sourcePoint" />
            <mxPoint x="225.99714285714276" y="55" as="targetPoint" />
          </mxGeometry>
        </mxCell>
        <mxCell id="BmQ3h2cgDi1CnOG-n2bF-78" value="A" style="ellipse;whiteSpace=wrap;html=1;aspect=fixed;fillColor=#E6FFCC;" vertex="1" parent="BmQ3h2cgDi1CnOG-n2bF-86">
          <mxGeometry x="175.99999999999994" width="64.81818181818181" height="64.81818181818181" as="geometry" />
        </mxCell>
        <mxCell id="BmQ3h2cgDi1CnOG-n2bF-79" value="B" style="ellipse;whiteSpace=wrap;html=1;aspect=fixed;fillColor=#CCFF99;" vertex="1" parent="BmQ3h2cgDi1CnOG-n2bF-86">
          <mxGeometry x="90" y="150" width="64.81818181818181" height="64.81818181818181" as="geometry" />
        </mxCell>
        <mxCell id="BmQ3h2cgDi1CnOG-n2bF-80" value="D" style="ellipse;whiteSpace=wrap;html=1;aspect=fixed;fillColor=#CCFF99;" vertex="1" parent="BmQ3h2cgDi1CnOG-n2bF-86">
          <mxGeometry x="259.9999999999998" y="150" width="64.81818181818181" height="64.81818181818181" as="geometry" />
        </mxCell>
        <mxCell id="BmQ3h2cgDi1CnOG-n2bF-81" value="" style="endArrow=none;html=1;rounded=0;entryX=0.256;entryY=0.943;entryDx=0;entryDy=0;entryPerimeter=0;exitX=0.657;exitY=0.025;exitDx=0;exitDy=0;exitPerimeter=0;" edge="1" parent="BmQ3h2cgDi1CnOG-n2bF-86" source="BmQ3h2cgDi1CnOG-n2bF-79" target="BmQ3h2cgDi1CnOG-n2bF-78">
          <mxGeometry width="50" height="50" relative="1" as="geometry">
            <mxPoint x="130.99714285714282" y="150" as="sourcePoint" />
            <mxPoint x="175.99714285714282" y="60" as="targetPoint" />
          </mxGeometry>
        </mxCell>
        <mxCell id="BmQ3h2cgDi1CnOG-n2bF-82" value="" style="endArrow=none;html=1;rounded=0;entryX=0.5;entryY=1;entryDx=0;entryDy=0;exitX=0.5;exitY=0;exitDx=0;exitDy=0;" edge="1" parent="BmQ3h2cgDi1CnOG-n2bF-86" source="BmQ3h2cgDi1CnOG-n2bF-76" target="BmQ3h2cgDi1CnOG-n2bF-78">
          <mxGeometry width="50" height="50" relative="1" as="geometry">
            <mxPoint x="176" y="181" as="sourcePoint" />
            <mxPoint x="235" y="90" as="targetPoint" />
          </mxGeometry>
        </mxCell>
        <mxCell id="BmQ3h2cgDi1CnOG-n2bF-97" value="&lt;b&gt;插入节点F&lt;/b&gt;" style="text;strokeColor=none;align=center;fillColor=none;html=1;verticalAlign=middle;whiteSpace=wrap;rounded=0;" vertex="1" parent="1">
          <mxGeometry x="170" y="890" width="60" height="20" as="geometry" />
        </mxCell>
        <mxCell id="BmQ3h2cgDi1CnOG-n2bF-101" value="&lt;b&gt;插入节点G&lt;/b&gt;" style="text;strokeColor=none;align=center;fillColor=none;html=1;verticalAlign=middle;whiteSpace=wrap;rounded=0;" vertex="1" parent="1">
          <mxGeometry x="562.41" y="890" width="60" height="20" as="geometry" />
        </mxCell>
        <mxCell id="BmQ3h2cgDi1CnOG-n2bF-115" value="" style="group" vertex="1" connectable="0" parent="1">
          <mxGeometry x="77.59000000000002" y="925" width="299.6381818181816" height="354.81818181818176" as="geometry" />
        </mxCell>
        <mxCell id="BmQ3h2cgDi1CnOG-n2bF-88" value="E" style="ellipse;whiteSpace=wrap;html=1;aspect=fixed;fillColor=#99FF33;" vertex="1" parent="BmQ3h2cgDi1CnOG-n2bF-115">
          <mxGeometry y="290" width="64.81818181818181" height="64.81818181818181" as="geometry" />
        </mxCell>
        <mxCell id="BmQ3h2cgDi1CnOG-n2bF-89" value="" style="endArrow=none;html=1;rounded=0;entryX=0.299;entryY=0.959;entryDx=0;entryDy=0;entryPerimeter=0;exitX=0.607;exitY=0.016;exitDx=0;exitDy=0;exitPerimeter=0;" edge="1" parent="BmQ3h2cgDi1CnOG-n2bF-115" source="BmQ3h2cgDi1CnOG-n2bF-88" target="BmQ3h2cgDi1CnOG-n2bF-93">
          <mxGeometry width="50" height="50" relative="1" as="geometry">
            <mxPoint x="14.819999999999993" y="300" as="sourcePoint" />
            <mxPoint x="74.82" y="209" as="targetPoint" />
          </mxGeometry>
        </mxCell>
        <mxCell id="BmQ3h2cgDi1CnOG-n2bF-90" value="C" style="ellipse;whiteSpace=wrap;html=1;aspect=fixed;fillColor=#CCFF99;" vertex="1" parent="BmQ3h2cgDi1CnOG-n2bF-115">
          <mxGeometry x="150.82" y="150" width="64.81818181818181" height="64.81818181818181" as="geometry" />
        </mxCell>
        <mxCell id="BmQ3h2cgDi1CnOG-n2bF-91" value="" style="endArrow=none;html=1;rounded=0;entryX=0.72;entryY=0.953;entryDx=0;entryDy=0;entryPerimeter=0;exitX=0.355;exitY=0.021;exitDx=0;exitDy=0;exitPerimeter=0;" edge="1" parent="BmQ3h2cgDi1CnOG-n2bF-115" source="BmQ3h2cgDi1CnOG-n2bF-94" target="BmQ3h2cgDi1CnOG-n2bF-92">
          <mxGeometry width="50" height="50" relative="1" as="geometry">
            <mxPoint x="270.81714285714276" y="148" as="sourcePoint" />
            <mxPoint x="200.81714285714276" y="55" as="targetPoint" />
          </mxGeometry>
        </mxCell>
        <mxCell id="BmQ3h2cgDi1CnOG-n2bF-92" value="A" style="ellipse;whiteSpace=wrap;html=1;aspect=fixed;fillColor=#E6FFCC;" vertex="1" parent="BmQ3h2cgDi1CnOG-n2bF-115">
          <mxGeometry x="150.81999999999994" width="64.81818181818181" height="64.81818181818181" as="geometry" />
        </mxCell>
        <mxCell id="BmQ3h2cgDi1CnOG-n2bF-93" value="B" style="ellipse;whiteSpace=wrap;html=1;aspect=fixed;fillColor=#CCFF99;" vertex="1" parent="BmQ3h2cgDi1CnOG-n2bF-115">
          <mxGeometry x="64.82" y="150" width="64.81818181818181" height="64.81818181818181" as="geometry" />
        </mxCell>
        <mxCell id="BmQ3h2cgDi1CnOG-n2bF-94" value="D" style="ellipse;whiteSpace=wrap;html=1;aspect=fixed;fillColor=#CCFF99;" vertex="1" parent="BmQ3h2cgDi1CnOG-n2bF-115">
          <mxGeometry x="234.81999999999977" y="150" width="64.81818181818181" height="64.81818181818181" as="geometry" />
        </mxCell>
        <mxCell id="BmQ3h2cgDi1CnOG-n2bF-95" value="" style="endArrow=none;html=1;rounded=0;entryX=0.256;entryY=0.943;entryDx=0;entryDy=0;entryPerimeter=0;exitX=0.657;exitY=0.025;exitDx=0;exitDy=0;exitPerimeter=0;" edge="1" parent="BmQ3h2cgDi1CnOG-n2bF-115" source="BmQ3h2cgDi1CnOG-n2bF-93" target="BmQ3h2cgDi1CnOG-n2bF-92">
          <mxGeometry width="50" height="50" relative="1" as="geometry">
            <mxPoint x="105.81714285714281" y="150" as="sourcePoint" />
            <mxPoint x="150.8171428571428" y="60" as="targetPoint" />
          </mxGeometry>
        </mxCell>
        <mxCell id="BmQ3h2cgDi1CnOG-n2bF-96" value="" style="endArrow=none;html=1;rounded=0;entryX=0.5;entryY=1;entryDx=0;entryDy=0;exitX=0.5;exitY=0;exitDx=0;exitDy=0;" edge="1" parent="BmQ3h2cgDi1CnOG-n2bF-115" source="BmQ3h2cgDi1CnOG-n2bF-90" target="BmQ3h2cgDi1CnOG-n2bF-92">
          <mxGeometry width="50" height="50" relative="1" as="geometry">
            <mxPoint x="150.82" y="181" as="sourcePoint" />
            <mxPoint x="209.82" y="90" as="targetPoint" />
          </mxGeometry>
        </mxCell>
        <mxCell id="BmQ3h2cgDi1CnOG-n2bF-98" value="F" style="ellipse;whiteSpace=wrap;html=1;aspect=fixed;fillColor=#99FF33;" vertex="1" parent="BmQ3h2cgDi1CnOG-n2bF-115">
          <mxGeometry x="129.64" y="290" width="64.81818181818181" height="64.81818181818181" as="geometry" />
        </mxCell>
        <mxCell id="BmQ3h2cgDi1CnOG-n2bF-114" value="" style="endArrow=none;html=1;rounded=0;entryX=0.666;entryY=0.977;entryDx=0;entryDy=0;entryPerimeter=0;exitX=0.396;exitY=0.005;exitDx=0;exitDy=0;exitPerimeter=0;" edge="1" parent="BmQ3h2cgDi1CnOG-n2bF-115" source="BmQ3h2cgDi1CnOG-n2bF-98" target="BmQ3h2cgDi1CnOG-n2bF-93">
          <mxGeometry width="50" height="50" relative="1" as="geometry">
            <mxPoint x="164.82" y="300" as="sourcePoint" />
            <mxPoint x="104.82" y="211" as="targetPoint" />
          </mxGeometry>
        </mxCell>
        <mxCell id="BmQ3h2cgDi1CnOG-n2bF-119" value="" style="group" vertex="1" connectable="0" parent="1">
          <mxGeometry x="430" y="920" width="324.8181818181815" height="364.81818181818176" as="geometry" />
        </mxCell>
        <mxCell id="BmQ3h2cgDi1CnOG-n2bF-103" value="E" style="ellipse;whiteSpace=wrap;html=1;aspect=fixed;fillColor=#99FF33;" vertex="1" parent="BmQ3h2cgDi1CnOG-n2bF-119">
          <mxGeometry y="300" width="64.81818181818181" height="64.81818181818181" as="geometry" />
        </mxCell>
        <mxCell id="BmQ3h2cgDi1CnOG-n2bF-104" value="" style="endArrow=none;html=1;rounded=0;entryX=0.224;entryY=0.915;entryDx=0;entryDy=0;entryPerimeter=0;exitX=0.607;exitY=0.016;exitDx=0;exitDy=0;exitPerimeter=0;" edge="1" parent="BmQ3h2cgDi1CnOG-n2bF-119" source="BmQ3h2cgDi1CnOG-n2bF-103" target="BmQ3h2cgDi1CnOG-n2bF-108">
          <mxGeometry width="50" height="50" relative="1" as="geometry">
            <mxPoint x="40" y="300" as="sourcePoint" />
            <mxPoint x="99.99999999999994" y="209" as="targetPoint" />
          </mxGeometry>
        </mxCell>
        <mxCell id="BmQ3h2cgDi1CnOG-n2bF-105" value="C" style="ellipse;whiteSpace=wrap;html=1;aspect=fixed;fillColor=#CCFF99;" vertex="1" parent="BmQ3h2cgDi1CnOG-n2bF-119">
          <mxGeometry x="175.99999999999994" y="150" width="64.81818181818181" height="64.81818181818181" as="geometry" />
        </mxCell>
        <mxCell id="BmQ3h2cgDi1CnOG-n2bF-106" value="" style="endArrow=none;html=1;rounded=0;entryX=0.72;entryY=0.953;entryDx=0;entryDy=0;entryPerimeter=0;exitX=0.355;exitY=0.021;exitDx=0;exitDy=0;exitPerimeter=0;" edge="1" parent="BmQ3h2cgDi1CnOG-n2bF-119" source="BmQ3h2cgDi1CnOG-n2bF-109" target="BmQ3h2cgDi1CnOG-n2bF-107">
          <mxGeometry width="50" height="50" relative="1" as="geometry">
            <mxPoint x="295.9971428571427" y="148" as="sourcePoint" />
            <mxPoint x="225.9971428571427" y="55" as="targetPoint" />
          </mxGeometry>
        </mxCell>
        <mxCell id="BmQ3h2cgDi1CnOG-n2bF-107" value="A" style="ellipse;whiteSpace=wrap;html=1;aspect=fixed;fillColor=#E6FFCC;" vertex="1" parent="BmQ3h2cgDi1CnOG-n2bF-119">
          <mxGeometry x="175.99999999999994" width="64.81818181818181" height="64.81818181818181" as="geometry" />
        </mxCell>
        <mxCell id="BmQ3h2cgDi1CnOG-n2bF-108" value="B" style="ellipse;whiteSpace=wrap;html=1;aspect=fixed;fillColor=#CCFF99;" vertex="1" parent="BmQ3h2cgDi1CnOG-n2bF-119">
          <mxGeometry x="89.99999999999994" y="150" width="64.81818181818181" height="64.81818181818181" as="geometry" />
        </mxCell>
        <mxCell id="BmQ3h2cgDi1CnOG-n2bF-109" value="D" style="ellipse;whiteSpace=wrap;html=1;aspect=fixed;fillColor=#CCFF99;" vertex="1" parent="BmQ3h2cgDi1CnOG-n2bF-119">
          <mxGeometry x="259.9999999999997" y="150" width="64.81818181818181" height="64.81818181818181" as="geometry" />
        </mxCell>
        <mxCell id="BmQ3h2cgDi1CnOG-n2bF-110" value="" style="endArrow=none;html=1;rounded=0;entryX=0.256;entryY=0.943;entryDx=0;entryDy=0;entryPerimeter=0;exitX=0.657;exitY=0.025;exitDx=0;exitDy=0;exitPerimeter=0;" edge="1" parent="BmQ3h2cgDi1CnOG-n2bF-119" source="BmQ3h2cgDi1CnOG-n2bF-108" target="BmQ3h2cgDi1CnOG-n2bF-107">
          <mxGeometry width="50" height="50" relative="1" as="geometry">
            <mxPoint x="130.99714285714282" y="150" as="sourcePoint" />
            <mxPoint x="175.99714285714282" y="60" as="targetPoint" />
          </mxGeometry>
        </mxCell>
        <mxCell id="BmQ3h2cgDi1CnOG-n2bF-111" value="" style="endArrow=none;html=1;rounded=0;entryX=0.5;entryY=1;entryDx=0;entryDy=0;exitX=0.5;exitY=0;exitDx=0;exitDy=0;" edge="1" parent="BmQ3h2cgDi1CnOG-n2bF-119" source="BmQ3h2cgDi1CnOG-n2bF-105" target="BmQ3h2cgDi1CnOG-n2bF-107">
          <mxGeometry width="50" height="50" relative="1" as="geometry">
            <mxPoint x="175.99999999999994" y="181" as="sourcePoint" />
            <mxPoint x="234.99999999999994" y="90" as="targetPoint" />
          </mxGeometry>
        </mxCell>
        <mxCell id="BmQ3h2cgDi1CnOG-n2bF-112" value="F" style="ellipse;whiteSpace=wrap;html=1;aspect=fixed;fillColor=#99FF33;" vertex="1" parent="BmQ3h2cgDi1CnOG-n2bF-119">
          <mxGeometry x="89.99999999999994" y="300" width="64.81818181818181" height="64.81818181818181" as="geometry" />
        </mxCell>
        <mxCell id="BmQ3h2cgDi1CnOG-n2bF-113" value="" style="endArrow=none;html=1;rounded=0;entryX=0.5;entryY=1;entryDx=0;entryDy=0;exitX=0.5;exitY=0;exitDx=0;exitDy=0;" edge="1" parent="BmQ3h2cgDi1CnOG-n2bF-119" source="BmQ3h2cgDi1CnOG-n2bF-112" target="BmQ3h2cgDi1CnOG-n2bF-108">
          <mxGeometry width="50" height="50" relative="1" as="geometry">
            <mxPoint x="122.20999999999998" y="300" as="sourcePoint" />
            <mxPoint x="122.20999999999998" y="215" as="targetPoint" />
          </mxGeometry>
        </mxCell>
        <mxCell id="BmQ3h2cgDi1CnOG-n2bF-116" value="" style="endArrow=none;html=1;rounded=0;entryX=0.768;entryY=0.919;entryDx=0;entryDy=0;entryPerimeter=0;exitX=0.351;exitY=0.022;exitDx=0;exitDy=0;exitPerimeter=0;" edge="1" parent="BmQ3h2cgDi1CnOG-n2bF-119" source="BmQ3h2cgDi1CnOG-n2bF-118" target="BmQ3h2cgDi1CnOG-n2bF-108">
          <mxGeometry width="50" height="50" relative="1" as="geometry">
            <mxPoint x="202.41000000000003" y="300" as="sourcePoint" />
            <mxPoint x="141.41000000000003" y="211" as="targetPoint" />
          </mxGeometry>
        </mxCell>
        <mxCell id="BmQ3h2cgDi1CnOG-n2bF-118" value="G" style="ellipse;whiteSpace=wrap;html=1;aspect=fixed;fillColor=#99FF33;" vertex="1" parent="BmQ3h2cgDi1CnOG-n2bF-119">
          <mxGeometry x="176.00000000000006" y="300" width="64.81818181818181" height="64.81818181818181" as="geometry" />
        </mxCell>
      </root>
    </mxGraphModel>
  </diagram>
</mxfile>
